<svg width="1728" height="2045" viewBox="0 0 1728 2045" fill="none" xmlns="http://www.w3.org/2000/svg">
<g opacity="0.1" filter="url(#filter0_d_140_375)">
<path d="M863.5 2021C1421.58 2021 1874 1568.58 1874 1010.5C1874 452.416 1421.58 0 863.5 0C305.416 0 -147 452.416 -147 1010.5C-147 1568.58 305.416 2021 863.5 2021Z" fill="white"/>
<path d="M863.5 2020C1421.03 2020 1873 1568.03 1873 1010.5C1873 452.969 1421.03 1 863.5 1C305.969 1 -146 452.969 -146 1010.5C-146 1568.03 305.969 2020 863.5 2020Z" stroke="#15A36E" stroke-width="2"/>
</g>
<g opacity="0.2" filter="url(#filter1_d_140_375)">
<path d="M863.5 48.5C1399.22 48.5 1833.5 482.784 1833.5 1018.5C1833.5 1554.22 1399.22 1988.5 863.5 1988.5C327.784 1988.5 -106.5 1554.22 -106.5 1018.5C-106.5 482.784 327.784 48.5 863.5 48.5Z" fill="white" stroke="#15A36E"/>
<path d="M863.5 1988C1398.94 1988 1833 1553.94 1833 1018.5C1833 483.06 1398.94 49 863.5 49C328.06 49 -106 483.06 -106 1018.5C-106 1553.94 328.06 1988 863.5 1988Z" stroke="#15A36E" stroke-width="2"/>
</g>
<g opacity="0.3" filter="url(#filter2_d_140_375)">
<path d="M863.5 1852C1314.99 1852 1681 1485.99 1681 1034.5C1681 583.007 1314.99 217 863.5 217C412.007 217 46 583.007 46 1034.5C46 1485.99 412.007 1852 863.5 1852Z" fill="white"/>
<path d="M863.5 217.5C1314.72 217.5 1680.5 583.283 1680.5 1034.5C1680.5 1485.72 1314.72 1851.5 863.5 1851.5C412.283 1851.5 46.5 1485.72 46.5 1034.5C46.5 583.283 412.283 217.5 863.5 217.5Z" stroke="#15A36E" stroke-opacity="0.19"/>
<path d="M863.5 1851C1314.44 1851 1680 1485.44 1680 1034.5C1680 583.56 1314.44 218 863.5 218C412.56 218 47 583.56 47 1034.5C47 1485.44 412.56 1851 863.5 1851Z" stroke="#15A36E" stroke-opacity="0.19" stroke-width="2"/>
</g>
<g opacity="0.4" filter="url(#filter3_d_140_375)">
<path d="M868.5 1691C1243.78 1691 1548 1386.78 1548 1011.5C1548 636.223 1243.78 332 868.5 332C493.223 332 189 636.223 189 1011.5C189 1386.78 493.223 1691 868.5 1691Z" fill="white"/>
<path d="M868.5 332.5C1243.5 332.5 1547.5 636.499 1547.5 1011.5C1547.5 1386.5 1243.5 1690.5 868.5 1690.5C493.499 1690.5 189.5 1386.5 189.5 1011.5C189.5 636.499 493.499 332.5 868.5 332.5Z" stroke="#15A36E" stroke-opacity="0.19"/>
<path d="M868.5 1690C1243.23 1690 1547 1386.23 1547 1011.5C1547 636.775 1243.23 333 868.5 333C493.775 333 190 636.775 190 1011.5C190 1386.23 493.775 1690 868.5 1690Z" stroke="#15A36E" stroke-opacity="0.19" stroke-width="2"/>
</g>
<g opacity="0.6" filter="url(#filter4_d_140_375)">
<path d="M867 1578C1180.15 1578 1434 1324.15 1434 1011C1434 697.855 1180.15 444 867 444C553.855 444 300 697.855 300 1011C300 1324.15 553.855 1578 867 1578Z" fill="white"/>
<path d="M867 444.5C1179.87 444.5 1433.5 698.131 1433.5 1011C1433.5 1323.87 1179.87 1577.5 867 1577.5C554.131 1577.5 300.5 1323.87 300.5 1011C300.5 698.131 554.131 444.5 867 444.5Z" stroke="#15A36E" stroke-opacity="0.19"/>
<path d="M867 1577C1179.59 1577 1433 1323.59 1433 1011C1433 698.407 1179.59 445 867 445C554.407 445 301 698.407 301 1011C301 1323.59 554.407 1577 867 1577Z" stroke="#15A36E" stroke-opacity="0.19" stroke-width="2"/>
</g>
<g opacity="0.8" filter="url(#filter5_d_140_375)">
<path d="M863.5 1480C1109.54 1480 1309 1280.54 1309 1034.5C1309 788.457 1109.54 589 863.5 589C617.457 589 418 788.457 418 1034.5C418 1280.54 617.457 1480 863.5 1480Z" fill="white"/>
<path d="M863.5 1479C1108.99 1479 1308 1279.99 1308 1034.5C1308 789.009 1108.99 590 863.5 590C618.009 590 419 789.009 419 1034.5C419 1279.99 618.009 1479 863.5 1479Z" stroke="#15A36E" stroke-opacity="0.19" stroke-width="2"/>
</g>
<g filter="url(#filter6_d_140_375)">
<path d="M863.5 1388C1038.85 1388 1181 1245.85 1181 1070.5C1181 895.15 1038.85 753 863.5 753C688.15 753 546 895.15 546 1070.5C546 1245.85 688.15 1388 863.5 1388Z" fill="white"/>
</g>
<defs>
<filter id="filter0_d_140_375" x="-167" y="-16" width="2061" height="2061" filterUnits="userSpaceOnUse" color-interpolation-filters="sRGB">
<feFlood flood-opacity="0" result="BackgroundImageFix"/>
<feColorMatrix in="SourceAlpha" type="matrix" values="0 0 0 0 0 0 0 0 0 0 0 0 0 0 0 0 0 0 127 0" result="hardAlpha"/>
<feOffset dy="4"/>
<feGaussianBlur stdDeviation="10"/>
<feComposite in2="hardAlpha" operator="out"/>
<feColorMatrix type="matrix" values="0 0 0 0 0 0 0 0 0 0 0 0 0 0 0 0 0 0 0.05 0"/>
<feBlend mode="normal" in2="BackgroundImageFix" result="effect1_dropShadow_140_375"/>
<feBlend mode="normal" in="SourceGraphic" in2="effect1_dropShadow_140_375" result="shape"/>
</filter>
<filter id="filter1_d_140_375" x="-127" y="32" width="1981" height="1981" filterUnits="userSpaceOnUse" color-interpolation-filters="sRGB">
<feFlood flood-opacity="0" result="BackgroundImageFix"/>
<feColorMatrix in="SourceAlpha" type="matrix" values="0 0 0 0 0 0 0 0 0 0 0 0 0 0 0 0 0 0 127 0" result="hardAlpha"/>
<feOffset dy="4"/>
<feGaussianBlur stdDeviation="10"/>
<feComposite in2="hardAlpha" operator="out"/>
<feColorMatrix type="matrix" values="0 0 0 0 0.0823529 0 0 0 0 0.639216 0 0 0 0 0.431373 0 0 0 1 0"/>
<feBlend mode="normal" in2="BackgroundImageFix" result="effect1_dropShadow_140_375"/>
<feBlend mode="normal" in="SourceGraphic" in2="effect1_dropShadow_140_375" result="shape"/>
</filter>
<filter id="filter2_d_140_375" x="26" y="201" width="1675" height="1675" filterUnits="userSpaceOnUse" color-interpolation-filters="sRGB">
<feFlood flood-opacity="0" result="BackgroundImageFix"/>
<feColorMatrix in="SourceAlpha" type="matrix" values="0 0 0 0 0 0 0 0 0 0 0 0 0 0 0 0 0 0 127 0" result="hardAlpha"/>
<feOffset dy="4"/>
<feGaussianBlur stdDeviation="10"/>
<feComposite in2="hardAlpha" operator="out"/>
<feColorMatrix type="matrix" values="0 0 0 0 0.0823529 0 0 0 0 0.639216 0 0 0 0 0.431373 0 0 0 1 0"/>
<feBlend mode="normal" in2="BackgroundImageFix" result="effect1_dropShadow_140_375"/>
<feBlend mode="normal" in="SourceGraphic" in2="effect1_dropShadow_140_375" result="shape"/>
</filter>
<filter id="filter3_d_140_375" x="169" y="316" width="1399" height="1399" filterUnits="userSpaceOnUse" color-interpolation-filters="sRGB">
<feFlood flood-opacity="0" result="BackgroundImageFix"/>
<feColorMatrix in="SourceAlpha" type="matrix" values="0 0 0 0 0 0 0 0 0 0 0 0 0 0 0 0 0 0 127 0" result="hardAlpha"/>
<feOffset dy="4"/>
<feGaussianBlur stdDeviation="10"/>
<feComposite in2="hardAlpha" operator="out"/>
<feColorMatrix type="matrix" values="0 0 0 0 0.110508 0 0 0 0 0.56456 0 0 0 0 0.39509 0 0 0 1 0"/>
<feBlend mode="normal" in2="BackgroundImageFix" result="effect1_dropShadow_140_375"/>
<feBlend mode="normal" in="SourceGraphic" in2="effect1_dropShadow_140_375" result="shape"/>
</filter>
<filter id="filter4_d_140_375" x="280" y="428" width="1174" height="1174" filterUnits="userSpaceOnUse" color-interpolation-filters="sRGB">
<feFlood flood-opacity="0" result="BackgroundImageFix"/>
<feColorMatrix in="SourceAlpha" type="matrix" values="0 0 0 0 0 0 0 0 0 0 0 0 0 0 0 0 0 0 127 0" result="hardAlpha"/>
<feOffset dy="4"/>
<feGaussianBlur stdDeviation="10"/>
<feComposite in2="hardAlpha" operator="out"/>
<feColorMatrix type="matrix" values="0 0 0 0 0.0319903 0 0 0 0 0.523352 0 0 0 0 0.339956 0 0 0 1 0"/>
<feBlend mode="normal" in2="BackgroundImageFix" result="effect1_dropShadow_140_375"/>
<feBlend mode="normal" in="SourceGraphic" in2="effect1_dropShadow_140_375" result="shape"/>
</filter>
<filter id="filter5_d_140_375" x="398" y="573" width="931" height="931" filterUnits="userSpaceOnUse" color-interpolation-filters="sRGB">
<feFlood flood-opacity="0" result="BackgroundImageFix"/>
<feColorMatrix in="SourceAlpha" type="matrix" values="0 0 0 0 0 0 0 0 0 0 0 0 0 0 0 0 0 0 127 0" result="hardAlpha"/>
<feOffset dy="4"/>
<feGaussianBlur stdDeviation="10"/>
<feComposite in2="hardAlpha" operator="out"/>
<feColorMatrix type="matrix" values="0 0 0 0 0.110508 0 0 0 0 0.56456 0 0 0 0 0.39509 0 0 0 1 0"/>
<feBlend mode="normal" in2="BackgroundImageFix" result="effect1_dropShadow_140_375"/>
<feBlend mode="normal" in="SourceGraphic" in2="effect1_dropShadow_140_375" result="shape"/>
</filter>
<filter id="filter6_d_140_375" x="526" y="737" width="675" height="675" filterUnits="userSpaceOnUse" color-interpolation-filters="sRGB">
<feFlood flood-opacity="0" result="BackgroundImageFix"/>
<feColorMatrix in="SourceAlpha" type="matrix" values="0 0 0 0 0 0 0 0 0 0 0 0 0 0 0 0 0 0 127 0" result="hardAlpha"/>
<feOffset dy="4"/>
<feGaussianBlur stdDeviation="10"/>
<feComposite in2="hardAlpha" operator="out"/>
<feColorMatrix type="matrix" values="0 0 0 0 0.0823529 0 0 0 0 0.639216 0 0 0 0 0.431373 0 0 0 1 0"/>
<feBlend mode="normal" in2="BackgroundImageFix" result="effect1_dropShadow_140_375"/>
<feBlend mode="normal" in="SourceGraphic" in2="effect1_dropShadow_140_375" result="shape"/>
</filter>
</defs>
</svg>
